<?xml version="1.0" encoding="utf-8"?>
<!-- Generator: Adobe Illustrator 16.0.0, SVG Export Plug-In . SVG Version: 6.00 Build 0)  -->
<!DOCTYPE svg PUBLIC "-//W3C//DTD SVG 1.1//EN" "http://www.w3.org/Graphics/SVG/1.1/DTD/svg11.dtd">
<svg version="1.1" id="レイヤー_1" xmlns="http://www.w3.org/2000/svg" xmlns:xlink="http://www.w3.org/1999/xlink" x="0px"
	 y="0px" width="32px" height="32px" viewBox="0 0 32 32" enable-background="new 0 0 32 32" xml:space="preserve">
<g>
	<path d="M22.535,29.227c-1.532,1.664-3.935,2.496-7.208,2.496c-0.95,0-1.92-0.105-2.911-0.318c-0.99-0.211-1.888-0.553-2.693-1.029
		c-0.806-0.475-1.472-1.096-2-1.861s-0.818-1.703-0.871-2.811h3.366c0.026,0.605,0.218,1.121,0.574,1.543s0.792,0.766,1.307,1.031
		c0.515,0.264,1.076,0.455,1.683,0.574c0.607,0.117,1.188,0.178,1.743,0.178c1.109,0,2.045-0.191,2.812-0.574
		c0.765-0.383,1.399-0.912,1.901-1.584c0.5-0.674,0.864-1.486,1.089-2.436c0.224-0.951,0.336-1.994,0.336-3.129v-1.348h-0.078
		c-0.582,1.268-1.46,2.199-2.634,2.793c-1.176,0.594-2.424,0.891-3.743,0.891c-1.532,0-2.865-0.277-4-0.832
		c-1.135-0.555-2.086-1.299-2.852-2.236c-0.766-0.938-1.34-2.033-1.723-3.287c-0.383-1.254-0.574-2.582-0.574-3.981
		c0-1.214,0.158-2.462,0.475-3.742c0.317-1.281,0.845-2.442,1.584-3.485c0.739-1.043,1.716-1.901,2.931-2.574
		c1.214-0.673,2.706-1.01,4.475-1.01c1.293,0,2.481,0.284,3.565,0.852c1.082,0.568,1.927,1.42,2.534,2.555h0.039V2.97h3.169v18.733
		C24.832,25.055,24.065,27.564,22.535,29.227z M18.238,20.02c0.777-0.463,1.405-1.07,1.881-1.822
		c0.475-0.752,0.825-1.604,1.05-2.554c0.224-0.951,0.336-1.901,0.336-2.852c0-0.897-0.105-1.782-0.316-2.653
		c-0.212-0.871-0.548-1.657-1.011-2.357c-0.461-0.699-1.062-1.26-1.801-1.683c-0.74-0.422-1.639-0.633-2.694-0.633
		c-1.083,0-2.007,0.205-2.772,0.614c-0.766,0.41-1.393,0.957-1.881,1.644c-0.489,0.687-0.845,1.479-1.069,2.376
		c-0.225,0.898-0.336,1.836-0.336,2.812c0,0.924,0.092,1.848,0.277,2.771c0.185,0.925,0.501,1.763,0.951,2.515
		c0.449,0.752,1.043,1.359,1.782,1.822c0.739,0.461,1.664,0.693,2.772,0.693C16.516,20.713,17.459,20.48,18.238,20.02z"/>
</g>
</svg>
